<?xml version="1.0" encoding="UTF-8" standalone="no"?>
<svg
   version="1.1"
   id="Layer_1"
   x="0px"
   y="0px"
   viewBox="0 0 8742606.9 2754570.4"
   enable-background="new 0 0 2956.79 1659.6899"
   xml:space="preserve"
   sodipodi:docname="lotus.svg"
   inkscape:export-filename="lotus.png"
   inkscape:export-xdpi="96"
   inkscape:export-ydpi="96"
   width="8742607"
   height="2754570.5"
   xmlns:inkscape="http://www.inkscape.org/namespaces/inkscape"
   xmlns:sodipodi="http://sodipodi.sourceforge.net/DTD/sodipodi-0.dtd"
   xmlns="http://www.w3.org/2000/svg"
   xmlns:svg="http://www.w3.org/2000/svg"><defs
   id="defs10" /><sodipodi:namedview
   id="namedview10"
   pagecolor="#ffffff"
   bordercolor="#000000"
   borderopacity="0.25"
   inkscape:showpageshadow="2"
   inkscape:pageopacity="0.0"
   inkscape:pagecheckerboard="0"
   inkscape:deskcolor="#d1d1d1"
   inkscape:export-bgcolor="#00ff0000" />&#10;<g
   id="g10">&#10;	<path
   d="m 1347.8612,260.1471 c 42.0793,-77.5947 84.3987,-155.1627 130.7473,-230.3021 30.3921,48.5364 58.276,98.5673 86.1864,148.5714 21.053,38.4775 42.613,76.714 62.4919,115.8585 46.3752,100.1151 85.3059,204.9792 101.1556,314.6471 10.353,73.9121 9.4192,151 -14.7823,222.2705 -5.1499,13.2347 -9.1523,27.2701 -17.1572,39.1707 -15.4762,-50.7247 -34.6349,-100.2487 -56.0613,-148.705 -20.0123,-46.8557 -46.3219,-90.5624 -70.3101,-135.4168 -29.5381,-53.3929 -59.5566,-106.5722 -91.443,-158.5776 -30.3921,49.4439 -59.0231,99.9549 -87.1737,150.7329 -21.3464,39.3042 -43.6804,78.1016 -63.3724,118.2598 -26.4697,56.6749 -48.8035,115.1908 -68.2554,174.5875 -24.6553,-49.8439 -35.7555,-105.5853 -37.223,-160.926 -2.775,-110.8418 27.377,-219.4953 66.948,-322.0651 17.4775,-43.5204 35.3018,-87.1209 58.2492,-128.1058 z"
   id="path1"
   style="fill:#ffffff" />&#10;	<path
   d="m 847.286,251.8217 c 94.2181,32.5005 181.8988,82.2643 261.6547,141.741 27.4036,20.8931 54.2467,42.5862 78.9821,66.6277 -27.0835,53.2594 -35.5687,113.697 -37.2498,172.8266 -1.3074,85.0388 10.9668,170.3719 36.7694,251.4617 -27.7238,-35.7551 -53.046,-73.4854 -82.2908,-108.0934 -29.885,-36.529 -63.1589,-70.4431 -100.5953,-99.261 -44.9611,-34.875 -94.5117,-63.1854 -144.249,-90.5356 -17.6909,-59.3699 -21.3464,-121.7554 -22.6006,-183.3136 0.5337,-50.5911 3.2821,-101.2089 9.5793,-151.4534 z"
   id="path2"
   style="fill:#ffffff" />&#10;	<path
   d="m 2030.3353,299.1575 c 35.9154,-18.0906 72.765,-34.5011 110.8949,-47.3091 8.6987,73.3519 12.3276,147.5043 6.5376,221.2301 -3.1221,38.2899 -8.272,76.7407 -19.5854,113.5896 -44.801,24.5223 -89.3085,49.9246 -130.5873,80.1829 -35.1416,25.6695 -67.2948,55.3675 -95.9524,88.1344 -36.6094,41.0657 -67.9886,86.3736 -100.8623,130.3473 19.6389,-60.9979 31.246,-124.5038 35.5419,-188.4097 4.4028,-79.8357 0.9341,-163.9677 -35.8353,-236.6524 68.2287,-64.5197 146.5435,-118.0462 229.8483,-161.1131 z"
   id="path3"
   style="fill:#ffffff" />&#10;	<path
   d="m 433.6977,536.9844 c -0.9339,-18.1713 -2.4282,-36.4228 -0.2668,-54.5134 201.0039,52.1917 387.7591,154.6018 543.4817,291.513 56.9418,50.5377 111.3219,104.6244 157.1102,165.5949 C 1040.9254,873.0314 942.9183,812.8608 838.7741,765.1517 780.9518,738.8152 721.5552,715.201 659.8371,699.698 c 14.6757,37.3831 17.6642,78.0214 22.894,117.5125 C 648.4967,785.7777 609.5393,760.1083 570.8488,734.573 545.4198,717.8693 519.6172,701.7526 493.5745,686.0626 478.045,678.0309 469.1595,662.0478 460.941,647.372 443.4904,613.2717 436.7663,574.8209 433.6977,536.9844 Z"
   id="path4"
   style="fill:#ffffff" />&#10;	<path
   d="m 1932.7819,826.3627 c 165.9691,-161.4062 372.4161,-283.1342 597.3282,-340.4768 1.1472,55.2346 -2.8818,112.7101 -27.3503,163.1676 -7.311,13.208 -14.9424,27.2701 -27.27,36.5023 -48.3499,29.1645 -96.1394,59.3699 -142.1409,92.1903 -18.438,12.9943 -36.0491,27.1632 -52.8328,42.2396 4.2961,-39.4377 8.2986,-79.6494 22.2004,-117.0591 -97.0198,25.2421 -188.8364,67.3215 -276.7573,114.9244 -68.0952,37.0893 -133.202,79.3823 -196.281,124.3696 30.0987,-42.1054 66.5745,-79.3021 103.1037,-115.8579 z"
   id="path5"
   style="fill:#ffffff" />&#10;	<path
   d="m 1354.2118,839.4639 c 41.7324,-76.7667 83.5715,-153.5608 129.52,-227.9269 44.6942,71.9108 85.2258,146.3304 125.7041,220.6693 24.6284,43.2272 44.1071,89.1219 62.4119,135.3367 39.7577,102.4102 70.1498,210.9302 67.8284,321.6918 -1.2542,58.009 -13.1014,116.4722 -39.7312,168.344 -42.7729,85.5195 -125.8909,145.6367 -216.4534,172.2664 -44.1073,-14.0087 -86.6935,-33.9415 -123.5696,-62.145 -32.3666,-24.3621 -60.2505,-54.7538 -81.2234,-89.4419 -27.03,-44.0806 -42.266,-94.7251 -48.163,-145.9031 -7.0444,-60.6246 -1.5477,-122.0486 10.0594,-181.739 11.874,-59.7966 30.0719,-118.1796 51.9788,-174.988 18.2779,-46.3753 37.2496,-92.644 61.638,-136.1643 z"
   id="path6"
   style="fill:#ffffff" />&#10;	<path
   d="m 53.1698,649.4001 c 116.4184,9.2062 232.063,32.0999 342.3444,70.7904 93.0173,33.1937 183.4197,79.0891 255.8378,147.2379 15.0759,14.0347 28.9511,29.3514 41.8925,45.3613 -7.8448,64.6265 -8.0583,130.1062 -2.3481,194.9197 5.7635,62.6786 17.851,125.1709 40.5851,184.0333 17.8776,46.0818 42.7196,89.9226 76.2336,126.5051 9.7127,10.5397 20.546,19.9856 30.5789,30.2582 -52.5657,-5.3894 -104.0909,-18.5713 -154.2285,-35.0079 C 585.3647,1380.1442 492.2139,1328.5389 414.8596,1258.4156 322.5627,1175.5117 255.3746,1066.1643 218.8454,947.8778 206.4111,893.124 188.7735,839.3845 164.3851,788.7393 138.2356,734.9998 103.3074,683.4478 53.1698,649.4001 Z"
   id="path7"
   style="fill:#ffffff" />&#10;	<path
   d="m 2785.6277,663.6491 c 39.0908,-6.5105 78.4751,-11.2068 117.9924,-14.3024 -34.4744,24.0415 -62.5984,56.1681 -84.6653,91.817 -31.9397,51.4719 -54.22,108.4132 -70.5769,166.6093 -5.8438,19.4521 -8.7788,39.7308 -16.1433,58.7562 -33.9941,99.9281 -89.7354,192.7855 -164.4749,267.5516 -72.7646,73.1917 -162.2065,128.7994 -258.2124,166.1559 -61.6113,23.6942 -125.9175,41.2252 -191.6113,48.483 30.3386,-25.9626 56.2214,-57.0215 76.3403,-91.5499 30.7922,-52.726 49.6306,-111.6418 61.1045,-171.3856 16.6235,-89.8152 18.9182,-182.2191 8.4851,-272.915 56.5415,-70.6034 134.0024,-121.3815 215.3062,-159.1912 97.1265,-44.6676 201.2439,-72.5246 306.4556,-90.0289 z"
   id="path8"
   style="fill:#ffffff" />&#10;	<path
   d="m 743.8355,832.6068 c 51.4451,16.2496 101.7695,36.0756 150.9999,58.1693 52.4856,23.721 103.7973,50.5644 151.1865,83.4375 33.6475,23.508 65.5872,50.4849 89.9221,83.8121 12.1141,17.3707 23.2144,36.6625 26.4163,57.822 -10.6998,68.7892 -13.7952,139.0193 -6.484,208.342 5.6569,52.6991 17.7175,105.2914 41.092,153.134 17.3975,36.0757 42.8798,67.829 73.6187,93.4711 -102.2764,26.3633 -216.7468,12.995 -305.575,-46.0017 -42.2927,-27.9104 -77.9413,-65.1599 -106.1721,-107.079 -56.5948,-84.7189 -90.6959,-184.1135 -98.4073,-285.6963 -6.5907,-71.111 1.014,-142.3547 3.202,-213.4382 -0.3737,-29.4315 -1.2009,-61.558 -19.7991,-85.9728 z"
   id="path9"
   style="fill:#ffffff" />&#10;	<path
   d="m 2185.5776,841.8391 c 9.3125,-3.2286 18.6248,-6.6441 28.2307,-9.0192 -18.3044,23.3745 -19.2651,54.514 -19.9055,82.9046 1.9478,72.0711 9.9263,144.2491 3.2554,216.3469 -7.6848,101.209 -41.6257,200.257 -97.7937,284.8156 -26.4429,39.3309 -59.2898,74.6327 -98.1671,101.9828 -89.9221,64.0396 -208.9822,79.222 -314.6475,51.765 33.3274,-26.416 59.3434,-61.291 77.0609,-99.7946 21.3732,-45.788 32.5,-95.7126 37.9967,-145.7168 7.4714,-69.6959 4.3229,-140.2727 -6.4305,-209.4358 2.6149,-18.411 11.954,-35.1414 21.6133,-50.7246 28.0707,-41.7054 68.2821,-73.4053 109.7477,-100.915 80.4229,-52.0589 168.9574,-90.296 259.0396,-122.2089 z"
   id="path10"
   style="fill:#ffffff" />&#10;</g>&#10;</svg>
